<svg xmlns="http://www.w3.org/2000/svg" viewBox="-12442 -5163 11 9">
  <defs>
    <style>
      .cls-1 {
        fill: #fff;
      }
    </style>
  </defs>
  <g id="code-2" transform="translate(-12442 -5163)">
    <path id="Path_63" data-name="Path 63" class="cls-1" d="M3.735,4.857a.686.686,0,0,0-.2-.49.736.736,0,0,0-.987,0L.2,6.689a.688.688,0,0,0,0,.979l2.34,2.321a.7.7,0,0,0,.987,0,.689.689,0,0,0,0-.979L1.685,7.179,3.531,5.348A.686.686,0,0,0,3.735,4.857Z" transform="translate(0 -2.678)"/>
    <path id="Path_64" data-name="Path 64" class="cls-1" d="M23.613,6.689l-2.34-2.321a.735.735,0,0,0-.987,0,.689.689,0,0,0,0,.979l1.846,1.831L20.286,9.009a.689.689,0,0,0,0,.98.7.7,0,0,0,.986,0l2.34-2.321a.689.689,0,0,0,0-.979Z" transform="translate(-12.817 -2.678)"/>
    <path id="Path_65" data-name="Path 65" class="cls-1" d="M13.266.024a.8.8,0,0,0-.949.551l-1.95,7.462a.771.771,0,0,0,.556.939A.787.787,0,0,0,11.117,9a.774.774,0,0,0,.751-.577L13.818.962a.756.756,0,0,0-.082-.583A.767.767,0,0,0,13.266.024Z" transform="translate(-6.6 0)"/>
  </g>
</svg>
