<svg xmlns="http://www.w3.org/2000/svg" viewBox="-9592.693 -1339 18.28 18.28">
  <defs>
    <style>
      .cls-1 {
        fill: #141414;
        fill-rule: evenodd;
      }
    </style>
  </defs>
  <g id="Group_214" data-name="Group 214" transform="translate(-9592.693 -1339)">
    <path id="Path_25" data-name="Path 25" class="cls-1" d="M9.641,18.781a9.14,9.14,0,1,1,9.14-9.14A9.15,9.15,0,0,1,9.641,18.781Zm0-17.41a8.27,8.27,0,1,0,8.27,8.27A8.279,8.279,0,0,0,9.641,1.371Z" transform="translate(-0.501 -0.501)"/>
    <path id="Path_26" data-name="Path 26" class="cls-1" d="M15.121,14.318h-2.59a1.057,1.057,0,0,1,.025.2.92.92,0,1,1-1.834,0,1.056,1.056,0,0,1,.024-.2H8.155a.182.182,0,0,1-.159-.1.213.213,0,0,1,0-.2l.63-1.133a3.58,3.58,0,0,0,.444-1.733v-.993a2.746,2.746,0,0,1,1.833-2.643V6.792a.735.735,0,1,1,1.466,0v.724A2.747,2.747,0,0,1,14.2,10.159v.993a3.58,3.58,0,0,0,.444,1.733l.63,1.133a.211.211,0,0,1,0,.2A.183.183,0,0,1,15.121,14.318Zm-4.032.2a.552.552,0,1,0,1.1,0,.608.608,0,0,0-.05-.2h-1A.626.626,0,0,0,11.089,14.516ZM12,6.792a.368.368,0,1,0-.733,0v.635a2.34,2.34,0,0,1,.366-.04,2.34,2.34,0,0,1,.367.04Zm2.329,6.3a4,4,0,0,1-.5-1.936v-.993a2.3,2.3,0,0,0-2.2-2.377,2.3,2.3,0,0,0-2.2,2.377v.993a3.986,3.986,0,0,1-.5,1.936l-.463.834H14.8Z" transform="translate(-2.509 -1.979)"/>
  </g>
</svg>
