<svg xmlns="http://www.w3.org/2000/svg" viewBox="-10626.88 -1340.6 61.376 19.6">
  <defs>
    <style>
      .cls-1 {
        fill: #141414;
      }
    </style>
  </defs>
  <path id="Path_66" data-name="Path 66" class="cls-1" d="M1.12-19.6V0H3.3V-8.372h1.54c1.82,0,2.856.7,2.856,2.912v3.08A5.133,5.133,0,0,0,8.064,0h2.212a4.909,4.909,0,0,1-.392-2.352V-5.4c0-2.1-.672-3.556-2.464-4.088,1.68-.532,2.436-1.876,2.436-4.032v-1.6c0-2.912-1.288-4.48-4.368-4.48ZM3.3-10.36v-7.252H5.432c1.624,0,2.268.924,2.268,2.688v1.876c0,2.128-1.036,2.688-2.772,2.688Zm11.032-.56v-6.692h5.88V-19.6H12.152V0h8.064V-1.988h-5.88V-8.96h4.788v-1.96Zm7.9-8.68V0h4.592c3.052,0,4.452-1.848,4.452-4.844v-9.884c0-3.024-1.4-4.872-4.452-4.872ZM24.416-1.988V-17.612h2.352c1.6,0,2.352.98,2.352,2.772V-4.76c0,1.792-.756,2.772-2.324,2.772ZM33.32-19.6V0H35.5V-8.372h1.54c1.82,0,2.856.7,2.856,2.912v3.08A5.133,5.133,0,0,0,40.264,0h2.212a4.909,4.909,0,0,1-.392-2.352V-5.4c0-2.1-.672-3.556-2.464-4.088,1.68-.532,2.436-1.876,2.436-4.032v-1.6c0-2.912-1.288-4.48-4.368-4.48ZM35.5-10.36v-7.252h2.128c1.624,0,2.268.924,2.268,2.688v1.876c0,2.128-1.036,2.688-2.772,2.688Zm11.032-.56v-6.692h5.88V-19.6H44.352V0h8.064V-1.988h-5.88V-8.96h4.788v-1.96Zm10.08,0v-6.692H62.5V-19.6H54.432V0H62.5V-1.988h-5.88V-8.96H61.4v-1.96Z" transform="translate(-10628 -1321)"/>
</svg>
