<svg xmlns="http://www.w3.org/2000/svg" viewBox="-12460 -5163 11 9">
  <defs>
    <style>
      .cls-1 {
        fill: #fff;
      }
    </style>
  </defs>
  <path id="Path_61" data-name="Path 61" class="cls-1" d="M10.6,2.16H11V.683A.689.689,0,0,0,10.3,0H.7A.689.689,0,0,0,0,.683V2.16H.4a.325.325,0,0,1,.329.323V6.518A.325.325,0,0,1,.4,6.84H0V8.317A.689.689,0,0,0,.7,9h9.61A.689.689,0,0,0,11,8.317V6.84h-.4a.325.325,0,0,1-.329-.323V2.483A.325.325,0,0,1,10.6,2.16ZM6.6.72h.733v.72H6.6ZM5.133.72h.733v.72H5.133ZM3.667.72H4.4v.72H3.667ZM2.2.72h.733v.72H2.2ZM1.467,8.28H.733V7.56h.733Zm0-6.84H.733V.72h.733ZM2.933,8.28H2.2V7.56h.733Zm1.467,0H3.667V7.56H4.4Zm1.467,0H5.133V7.56h.733Zm1.467,0H6.6V7.56h.733Zm1.467,0H8.067V7.56H8.8Zm0-1.763a.325.325,0,0,1-.329.323H2.529A.325.325,0,0,1,2.2,6.517V2.483a.325.325,0,0,1,.329-.323H8.472a.325.325,0,0,1,.328.323Zm0-5.077H8.067V.72H8.8Zm1.467,6.84H9.533V7.56h.733ZM9.533,1.44V.72h.733v.72Z" transform="translate(-12460 -5163)"/>
</svg>
